<!-- Generator: Adobe Illustrator 25.0.1, SVG Export Plug-In  -->
<svg version="1.1" xmlns="http://www.w3.org/2000/svg" xmlns:xlink="http://www.w3.org/1999/xlink" x="0px" y="0px" width="87.08px"
	 height="87.03px" viewBox="0 0 87.08 87.03" style="overflow:visible;enable-background:new 0 0 87.08 87.03;"
	 xml:space="preserve">
<style type="text/css">
	.st0{fill:#E80036;}
	.st1{fill:#FFFFFF;}
</style>
<defs>
</defs>
<g>
	<polygon points="56.86,66.01 34.6,53.16 34.6,25.45 40.6,25.45 40.6,49.69 59.86,60.81 	"/>
</g>
<path d="M51.4,0.42H23.1v9h21.62C46.25,5.94,48.55,2.87,51.4,0.42z"/>
<path d="M68.8,44.42c0.26,1.63,0.4,3.3,0.4,5c0,17.43-14.18,31.6-31.6,31.6S6,66.85,6,49.42s14.18-31.6,31.6-31.6
	c1.72,0,3.41,0.14,5.06,0.41c0.1-2.05,0.44-4.03,1-5.92c-1.97-0.32-4-0.49-6.06-0.49c-8.01,0-15.43,2.51-21.53,6.78l-4.39-4.86
	l-8.17,7.37l4.56,5.05C3.02,32.56,0,40.64,0,49.42c0,20.77,16.84,37.6,37.6,37.6c20.77,0,37.6-16.84,37.6-37.6
	c0-2.04-0.17-4.04-0.48-5.99C72.83,43.99,70.85,44.33,68.8,44.42z"/>
<g>
	
		<ellipse transform="matrix(0.7071 -0.7071 0.7071 0.7071 6.069 53.5263)" class="st0" cx="67.65" cy="19.44" rx="19.44" ry="19.44"/>
</g>
<g>
	<path class="st1" d="M64.29,13.64V7.1h7.05v6.54l-1.7,9.98h-3.65L64.29,13.64z M64.29,26.04h7.05v6.9h-7.05V26.04z"/>
</g>
</svg>
