<!-- Generator: Adobe Illustrator 25.0.1, SVG Export Plug-In  -->
<svg version="1.1" xmlns="http://www.w3.org/2000/svg" xmlns:xlink="http://www.w3.org/1999/xlink" x="0px" y="0px" width="87.43px"
	 height="86.6px" viewBox="0 0 87.43 86.6" style="overflow:visible;enable-background:new 0 0 87.43 86.6;" xml:space="preserve">
<style type="text/css">
	.st0{fill:#007EBB;}
</style>
<defs>
</defs>
<polygon class="st0" points="37.44,56.82 17.62,34.67 23.58,29.33 37.76,45.18 81.77,1.17 87.43,6.83 "/>
<g>
	<path d="M74.35,41c-0.55-2.56-1.38-5.01-2.43-7.35l-4.6,4.6c0.47,1.31,0.87,2.64,1.17,4.02c0.48,2.2,0.72,4.46,0.72,6.73
		c0,17.43-14.18,31.6-31.6,31.6C20.18,80.6,6,66.43,6,49s14.18-31.6,31.6-31.6c4.51,0,8.85,0.93,12.92,2.75
		c0.22,0.1,0.43,0.21,0.64,0.31l4.46-4.46c-0.86-0.47-1.74-0.92-2.64-1.33c-4.7-2.11-9.9-3.28-15.38-3.28
		c-8.01,0-15.43,2.51-21.53,6.78l-4.39-4.86l-8.17,7.37l4.56,5.05C3.02,32.14,0,40.21,0,49c0,20.77,16.84,37.6,37.6,37.6
		c20.77,0,37.6-16.84,37.6-37.6C75.2,46.25,74.91,43.58,74.35,41z"/>
</g>
<g>
	<rect x="23.1" width="29.88" height="9"/>
</g>
</svg>
