<!-- Generator: Adobe Illustrator 25.0.1, SVG Export Plug-In  -->
<svg version="1.1" xmlns="http://www.w3.org/2000/svg" xmlns:xlink="http://www.w3.org/1999/xlink" x="0px" y="0px" width="75.2px"
	 height="86.6px" viewBox="0 0 75.2 86.6" style="overflow:visible;enable-background:new 0 0 75.2 86.6;" xml:space="preserve">
<style type="text/css">
	.st0{fill:#E80036;}
	.st1{fill:#FFFFFF;}
</style>
<defs>
</defs>
<circle class="st0" cx="37.6" cy="49" r="37.6"/>
<g>
	<path class="st1" d="M31.97,38.48V27.62h11.7v10.86l-2.82,16.56h-6.06L31.97,38.48z M31.97,59.06h11.7v11.46h-11.7V59.06z"/>
</g>
<path d="M37.6,11.4c-8.01,0-15.43,2.51-21.53,6.78l-4.39-4.86l-8.17,7.37l4.56,5.05C3.02,32.14,0,40.21,0,49
	c0,20.77,16.84,37.6,37.6,37.6c20.77,0,37.6-16.84,37.6-37.6S58.37,11.4,37.6,11.4z M37.6,81.03C19.94,81.03,5.58,66.66,5.58,49
	c0-17.66,14.37-32.03,32.03-32.03c17.66,0,32.03,14.37,32.03,32.03C69.63,66.66,55.26,81.03,37.6,81.03z"/>
<g>
	<rect x="23.1" width="29.88" height="9"/>
</g>
</svg>
